<svg xmlns="http://www.w3.org/2000/svg" viewBox="-12 -12 404 238" width="404" height="238" role="img" aria-label="Card: The Virtual View Manifesto. Read the book: views as data contracts for apps and agents. For data nerds, public domain.">
  <defs>
    <pattern id="bp-grid" width="20" height="20" patternUnits="userSpaceOnUse">
      <path d="M20 0H0V20" fill="none" stroke="#f3f7fc" stroke-opacity=".045" stroke-width="1"/>
    </pattern>
    <pattern id="hatch" width="8" height="8" patternUnits="userSpaceOnUse" patternTransform="rotate(45)">
      <line x1="0" y1="0" x2="0" y2="8" stroke="#f3f7fc" stroke-opacity=".45" stroke-width="1.2"/>
    </pattern>
    <filter id="wob" x="-5%" y="-5%" width="110%" height="110%">
      <feTurbulence type="fractalNoise" baseFrequency=".018" numOctaves="2" seed="7" result="n"/>
      <feDisplacementMap in="SourceGraphic" in2="n" scale="3.2"/>
    </filter>
    <filter id="glow" x="-100%" y="-100%" width="300%" height="300%"><feGaussianBlur stdDeviation="5"/></filter>
    <filter id="smudge"><feGaussianBlur stdDeviation="14"/></filter>
    <filter id="paper" x="0" y="0" width="100%" height="100%">
      <feTurbulence type="fractalNoise" baseFrequency=".9" numOctaves="2" seed="3"/>
      <feColorMatrix values="0 0 0 0 1  0 0 0 0 1  0 0 0 0 1  0 0 0 .05 0"/>
    </filter>
  </defs>
  <rect x="1" y="1" width="378" height="212" rx="8" fill="#245f9f"/>
  <rect x="1" y="1" width="378" height="212" rx="8" fill="url(#bp-grid)"/>
  <ellipse cx="310" cy="104" rx="60" ry="44" fill="#fff" opacity=".05" filter="url(#smudge)"/>
  <rect x="1" y="1" width="378" height="212" rx="8" fill="none" stroke="#f3f7fc" stroke-width="2"/>
  <text x="22" y="36" font-family="Barlow Condensed" font-weight="600" font-size="11" letter-spacing="3" fill="#cddbec">READ THE BOOK</text>
  <circle cx="309" cy="52" r="13" fill="#ffd447" opacity=".4" filter="url(#glow)"/>
  <g filter="url(#wob)" fill="none" stroke="#f3f7fc" stroke-width="1.6" stroke-linejoin="round">
    <rect x="262" y="118" width="94" height="24"/><rect x="274" y="96" width="70" height="22"/><rect x="286" y="78" width="46" height="18"/>
    <g stroke-width="1" stroke-opacity=".6">
      <path d="M264 124 q3 -4 6 0 t6 0 t6 0 t6 0 t6 0 t6 0 t6 0 t6 0 t6 0 t6 0 t6 0 t6 0 t6 0 t6 0 t6 0"/><path d="M276 102 q3 -4 6 0 t6 0 t6 0 t6 0 t6 0 t6 0 t6 0 t6 0 t6 0 t6 0 t6 0"/><path d="M288 84 q3 -4 6 0 t6 0 t6 0 t6 0 t6 0 t6 0 t6 0"/>
    </g>
    <g fill="#f3f7fc" fill-opacity=".6" stroke="none">
      <circle cx="268" cy="137" r="1.3"/><circle cx="276" cy="137" r="1.3"/><circle cx="284" cy="137" r="1.3"/><circle cx="292" cy="137" r="1.3"/><circle cx="300" cy="137" r="1.3"/><circle cx="308" cy="137" r="1.3"/><circle cx="316" cy="137" r="1.3"/><circle cx="324" cy="137" r="1.3"/><circle cx="332" cy="137" r="1.3"/><circle cx="340" cy="137" r="1.3"/><circle cx="348" cy="137" r="1.3"/>
      <circle cx="280" cy="113" r="1.3"/><circle cx="288" cy="113" r="1.3"/><circle cx="296" cy="113" r="1.3"/><circle cx="304" cy="113" r="1.3"/><circle cx="312" cy="113" r="1.3"/><circle cx="320" cy="113" r="1.3"/><circle cx="328" cy="113" r="1.3"/><circle cx="336" cy="113" r="1.3"/>
      <circle cx="292" cy="91" r="1.3"/><circle cx="300" cy="91" r="1.3"/><circle cx="308" cy="91" r="1.3"/><circle cx="316" cy="91" r="1.3"/><circle cx="324" cy="91" r="1.3"/>
    </g>
    <g stroke-width="1" stroke-opacity=".7">
      <path d="M284 78 h-36 M272 96 h-24 M260 118 h-12 M260 142 h-12"/>
      <path d="M254 78 V142 M250 81 l4 -3 l4 3 M250 139 l4 3 l4 -3 M251 96 l6 -6 M251 118 l6 -6"/>
    </g>
    <path d="M306 78 v-16 h6 v16"/>
    <path d="M309 60 c-5 -6 -2 -12 0 -16 c2 4 5 10 0 16" stroke-width="1.2"/>
    <path d="M254 148 h110" stroke-width="2.2"/>
  </g>
  <path d="M309 60 c-5 -6 -2 -12 0 -16 c2 4 5 10 0 16 Z" fill="#ffd447" stroke="#ffd447" stroke-width="1" stroke-linejoin="round"/>
  <path d="M298 53 h-5 M320 53 h5 M299 43 l-4 -3 M319 43 l4 -3 M309 38 v-5" fill="none" stroke="#ffd447" stroke-width="1.6" stroke-linecap="round"/>
  <text x="22" y="96" font-family="Barlow Condensed" font-weight="700" font-size="40" letter-spacing="2" fill="#f3f7fc">MANIFESTO</text>
  <text x="20.8" y="128" font-family="Patrick Hand SC" font-size="16" fill="#f3f7fc">VIEWS AS DATA CONTRACTS</text>
  <text x="22" y="150" font-family="Patrick Hand SC" font-size="16" fill="#f3f7fc">FOR APPS AND AGENTS</text>
  <line x1="1" y1="170" x2="379" y2="170" stroke="#f3f7fc"/>
  <text x="22" y="196" font-family="Barlow Condensed" font-size="12" letter-spacing="2" fill="#cddbec">FOR DATA NERDS · PUBLIC DOMAIN</text>
  <text x="358" y="197" text-anchor="end" font-family="Caveat" font-weight="700" font-size="22" fill="#ffd447">open →</text>
  <rect x="1" y="1" width="378" height="212" rx="8" filter="url(#paper)" opacity=".9" pointer-events="none"/>
</svg>
